{"title":"Out of the Furnace 2013 DVDScr Xvid AC3-BHRG [P2PDL]","uid":9390745,"size":1840244603,"categoryP":"video","categoryS":"movies","magnet":"?xt=urn:btih:91a6042347ab1a9368c9f0a8cb1d1e7ea04035d2&amp;dn=Out+of+the+Furnace+2013+DVDScr+Xvid+AC3-BHRG+%5BP2PDL%5D&amp;tr=udp%3A%2F%2Ftracker.openbittorrent.com%3A80&amp;tr=udp%3A%2F%2Fopen.demonii.com%3A1337&amp;tr=udp%3A%2F%2Ftracker.coppersurfer.tk%3A6969&amp;tr=udp%3A%2F%2Fexodus.desync.com%3A6969","seeders":1,"leechers":0,"uploader":"ValidusVyto","files":4,"time":1387881645,"description":"Out of the Furnace 2013 DVDScr Xvid AC3-BHRG\n\nInfo:\nGeneral\nComplete name                            : Out of the Furnace 2013 DVDScr Xvid AC3-BHRG/Out of the Furnace 2013 DVDScr Xvid AC3-BHRG.avi\nFormat                                   : AVI\nFormat/Info                              : Audio Video Interleave\nFile size                                : 1.66 GiB\nDuration                                 : 1h 56mn\nOverall bit rate                         : 2 051 Kbps\n\nVideo\nID                                       : 0\nFormat                                   : MPEG-4 Visual\nFormat profile                           : Advanced Simple@L5\nFormat settings, BVOP                    : 2\nFormat settings, QPel                    : No\nFormat settings, GMC                     : No warppoints\nFormat settings, Matrix                  : Default (H.263)\nCodec ID                                 : XVID\nCodec ID/Hint                            : XviD\nDuration                                 : 1h 56mn\nBit rate                                 : 1 595 Kbps\nWidth                                    : 720 pixels\nHeight                                   : 304 pixels\nDisplay aspect ratio                     : 2.35:1\nFrame rate                               : 23.976 fps\nColor space                              : YUV\nChroma subsampling                       : 4:2:0\nBit depth                                : 8 bits\nScan type                                : Progressive\nCompression mode                         : Lossy\nBits/(Pixel*Frame)                       : 0.304\nStream size                              : 1.29 GiB (78%)\nWriting library                          : XviD 1.2.1 (UTC 2008-12-04)\n\nAudio\nID                                       : 1\nFormat                                   : AC-3\nFormat/Info                              : Audio Coding 3\nMode extension                           : CM (complete main)\nFormat settings, Endianness              : Big\nCodec ID                                 : 2000\nDuration                                 : 1h 56mn\nBit rate mode                            : Constant\nBit rate                                 : 448 Kbps\nChannel(s)                               : 6 channels\nChannel positions                        : Front: L C R, Side: L R, LFE\nSampling rate                            : 44.1 KHz\nBit depth                                : 16 bits\nCompression mode                         : Lossy\nStream size                              : 372 MiB (22%)\nAlignment                                : Aligned on interleaves\nInterleave, duration                     : 70 ms (1.67 video frames)\nInterleave, preload duration             : 209 ms\nTitle                                    : Out of the Furnace 2013 720p DVDScr x264 AC3-[0] English_new\n\n\n","torrent":{"xt":"urn:btih:91a6042347ab1a9368c9f0a8cb1d1e7ea04035d2","amp;dn":"Out+of+the+Furnace+2013+DVDScr+Xvid+AC3-BHRG+%5BP2PDL%5D","amp;tr":["udp%3A%2F%2Ftracker.openbittorrent.com%3A80","udp%3A%2F%2Fopen.demonii.com%3A1337","udp%3A%2F%2Ftracker.coppersurfer.tk%3A6969","udp%3A%2F%2Fexodus.desync.com%3A6969"],"infoHash":"91a6042347ab1a9368c9f0a8cb1d1e7ea04035d2","infoHashBuffer":{"type":"Buffer","data":[145,166,4,35,71,171,26,147,104,201,240,168,203,29,30,126,160,64,53,210]},"announce":[],"urlList":[]}}